<svg id="Ebene_1" data-name="Ebene 1" xmlns="http://www.w3.org/2000/svg" viewBox="0 0 376.95 254.65"><defs><style>.cls-1{fill:#1f1e80;}.cls-2{fill:none;stroke:#1f1e80;stroke-miterlimit:10;stroke-width:10.23px;}.cls-3{fill:#fff;}</style></defs><path class="cls-1" d="M75.36,140.81A13.41,13.41,0,1,1,62,154.22a13.42,13.42,0,0,1,13.41-13.41m0-3a16.39,16.39,0,1,0,16.39,16.39,16.41,16.41,0,0,0-16.39-16.39Z"/><path class="cls-1" d="M203.13,140.53a13.41,13.41,0,1,1-13.41,13.41,13.41,13.41,0,0,1,13.41-13.41m0-3a16.39,16.39,0,1,0,16.39,16.39,16.42,16.42,0,0,0-16.39-16.39Z"/><path class="cls-1" d="M120.11,76v3h2.24V99l-38.69,1.08c4-7.74,13.08-19.42,16.18-20.19,2.47-.62,9.86-1,20.27-1V76m0,0c-6.54,0-17.34.14-21,1.06-5.59,1.39-18.09,19.63-20,26.19l46.22-1.29V76s-2.14,0-5.22,0Z"/><circle class="cls-1" cx="75.22" cy="154.57" r="8.41"/><circle class="cls-1" cx="203.19" cy="154.19" r="8.41"/><path class="cls-1" d="M191.59,69.57c25.8,0,46.91.45,47.69,1.63,4,5,7.06,39.29,7.06,39.29s0,36.75-2.63,40l-24.22,2.8a16.38,16.38,0,0,0-32.75.64,16.64,16.64,0,0,0,.12,1.88l-57.37.64-38,.78a16.71,16.71,0,0,0,.29-3,16.39,16.39,0,0,0-32.78,0c0,.43,0,.84.06,1.25l-16-4.34s-1-27.13,3-30.43C54.58,113.63,71.9,103,72.13,103c3.43-6.52,16.85-29.31,24-31.11,4.82-1.2,55.69-2.28,95.44-2.28m0-3c-34.51,0-90.46,1-96.17,2.37-2.46.62-6.71,2.84-15.13,15A192.35,192.35,0,0,0,69.91,100.8c-1.48.82-4.15,2.49-9.34,5.89a201.51,201.51,0,0,0-16.41,11.72c-1.74,1.44-3.58,4.78-4.06,18.64-.25,7.22,0,13.91,0,14.19l.08,2.19,2.12.58,16,4.34,4.08,1.11L62,155.25c0-.37,0-.72,0-1a13.41,13.41,0,1,1,26.58,2.47l-.67,3.6,3.66-.08,38-.77,57.34-.64,3.31,0-.38-3.28a12.51,12.51,0,0,1-.1-1.54,13.4,13.4,0,0,1,26.79-.53l.13,3.21,3.19-.36,24.22-2.8,1.22-.14.76-.95c.85-1.05,2.27-2.81,3-23,.32-9.54.33-18.8.33-18.89v-.27c-.74-8.21-3.47-35.32-7.63-40.79-.94-1.3-2.44-1.63-6.31-2-2.46-.21-6-.38-10.47-.52-8.11-.24-19.63-.37-33.31-.37Z"/><path class="cls-2" d="M152.25,68.11a61.82,61.82,0,0,1,109.28,55.52"/><polygon class="cls-1" points="137.09 57.35 170.12 74.65 144.96 82.51 137.09 57.35"/><path class="cls-1" d="M163.59,179.45a13.41,13.41,0,1,1-13.41,13.41,13.41,13.41,0,0,1,13.41-13.41m0-3A16.39,16.39,0,1,0,180,192.86a16.41,16.41,0,0,0-16.39-16.39Z"/><path class="cls-1" d="M291.36,179.17A13.41,13.41,0,1,1,278,192.58a13.41,13.41,0,0,1,13.41-13.41m0-3a16.39,16.39,0,1,0,16.39,16.39,16.41,16.41,0,0,0-16.39-16.39Z"/><path class="cls-3" d="M178.22,195.6a14.69,14.69,0,0,0,.27-2.74,14.9,14.9,0,0,0-29.8,0c0,.38,0,.76.06,1.14l.16,2.1-19-5.18,0-1.1c-.24-6.53-.69-28.13,3.52-31.63a254.33,254.33,0,0,1,25.89-17.62C161,137.31,175.46,111.18,184,109c5.16-1.29,56.62-2.33,95.79-2.33,46.61,0,48.25,1.28,48.91,2.25,4.11,5.33,7,36.49,7.33,40v.14c0,8.74-.21,37.54-3,40.94l-.38.48-26.43,3-.06-1.61a14.89,14.89,0,0,0-29.76.59,15.12,15.12,0,0,0,.1,1.71l.19,1.64-59,.66-39.85.81Z"/><path class="cls-1" d="M279.82,108.2c25.8,0,46.91.46,47.69,1.63,4,5,7.06,39.3,7.06,39.3s0,36.75-2.63,40l-24.22,2.79a16.38,16.38,0,0,0-32.75.65,16.64,16.64,0,0,0,.12,1.88l-57.37.64-38,.77a16.6,16.6,0,0,0,.29-3,16.39,16.39,0,1,0-32.78,0c0,.42,0,.84.07,1.25l-16-4.34s-1-27.13,3-30.43c8.52-7.07,25.84-17.74,26.07-17.75,3.43-6.51,16.85-29.31,24-31.1,4.82-1.2,55.69-2.29,95.44-2.29m0-3c-34.5,0-90.45,1-96.16,2.38-2.47.61-6.71,2.84-15.14,15a192.5,192.5,0,0,0-10.38,16.86c-1.48.83-4.15,2.5-9.34,5.89a201.63,201.63,0,0,0-16.41,11.73c-1.74,1.44-3.58,4.78-4.06,18.64-.25,7.21,0,13.91,0,14.19l.08,2.19,2.12.57L146.48,197l4.08,1.11-.32-4.22c0-.36-.06-.71-.06-1a13.41,13.41,0,1,1,26.58,2.46l-.67,3.61,3.66-.08,38-.78,57.34-.63,3.31,0-.38-3.28a14.84,14.84,0,0,1-.1-1.54,13.4,13.4,0,0,1,26.79-.53l.13,3.21,3.19-.37,24.22-2.79,1.22-.14.76-1c.85-1.06,2.27-2.82,3-23,.32-9.53.33-18.79.33-18.88v-.27c-.74-8.22-3.47-35.32-7.63-40.8-.93-1.29-2.44-1.62-6.31-2-2.46-.2-6-.37-10.46-.51-8.12-.25-19.64-.38-33.32-.38Z"/><path class="cls-1" d="M208.34,114.6v3h2.24v20.08l-38.69,1.07c4-7.73,13.08-19.41,16.18-20.19,2.47-.61,9.86-1,20.27-1v-3m0,0c-6.54,0-17.34.15-21,1.06-5.59,1.4-18.09,19.64-20,26.19l46.22-1.29V114.63s-2.14,0-5.22,0Z"/><circle class="cls-1" cx="163.45" cy="193.21" r="8.41"/><circle class="cls-1" cx="291.42" cy="192.83" r="8.41"/><path class="cls-2" d="M221,196.37A61.83,61.83,0,0,1,108.25,158.8"/><polygon class="cls-1" points="236.17 207.14 203.15 189.84 228.3 181.98 236.17 207.14"/></svg>