<svg id="Ebene_1" data-name="Ebene 1" xmlns="http://www.w3.org/2000/svg" viewBox="0 0 376.95 254.65"><defs><style>.cls-1,.cls-4,.cls-5{fill:none;stroke:#1f1e80;}.cls-1,.cls-4{stroke-miterlimit:10;}.cls-1{stroke-width:10.23px;}.cls-2{fill:#1f1e80;}.cls-3{fill:#fff;}.cls-4,.cls-5{stroke-width:2.26px;}.cls-5{stroke-linejoin:bevel;}</style></defs><path class="cls-1" d="M180.85,177.81a61.83,61.83,0,0,1-64.29-100"/><polygon class="cls-2" points="185.92 195.7 171.03 161.51 195.56 171.16 185.92 195.7"/><path class="cls-2" d="M57.41,116.4a10.19,10.19,0,1,1-10.19,10.19A10.19,10.19,0,0,1,57.41,116.4m0-2.26a12.45,12.45,0,1,0,12.45,12.45,12.46,12.46,0,0,0-12.45-12.45Z"/><path class="cls-3" d="M68.17,128.6a11,11,0,1,0-21.72-2c0,.27,0,.54,0,.8l.15,2.11-2-.52-13.18-3.59,0-1.1c-.23-6.41-.43-21.63,2.8-24.32A195.49,195.49,0,0,1,53.81,86.62c1.52-2.78,12.45-22.41,19-24.06,4-1,43.09-1.78,72.87-1.78,35.61,0,36.83.93,37.45,1.85,3.12,4.08,5.24,26.19,5.64,30.6v.13c0,8.56-.23,28.73-2.33,31.34l-.38.47-20.61,2.38-.06-1.61a11,11,0,0,0-21.9.44,9.79,9.79,0,0,0,.08,1.26l.18,1.64-45.24.5-30.71.63Z"/><path class="cls-2" d="M145.72,62.27c19.6,0,35.64.35,36.23,1.24,3,3.77,5.37,29.85,5.37,29.85s0,27.92-2,30.4l-18.41,2.12a12.44,12.44,0,0,0-24.87.5,13.22,13.22,0,0,0,.08,1.42l-43.58.49-28.9.59A12.45,12.45,0,1,0,45,126.59c0,.32,0,.64,0,1l-12.12-3.3s-.75-20.61,2.27-23.12C41.62,95.75,54.78,87.64,55,87.64c2.6-5,12.79-22.27,18.24-23.63,3.66-.92,42.32-1.74,72.52-1.74m0-3c-26.89,0-68.78.71-73.24,1.83C65.39,62.89,55,81.41,52.74,85.47c-1.22.69-3.27,2-7,4.4s-9,6-12.54,9c-1.51,1.26-3,3.9-3.34,14.69-.19,5.51,0,10.61,0,10.83l.08,2.19,2.12.58,12.12,3.3,4.08,1.11L48,127.31q0-.41,0-.72a9.47,9.47,0,0,1,18.94,0,9.75,9.75,0,0,1-.17,1.74l-.67,3.6,3.66-.07,28.9-.59,43.56-.49,3.3,0-.37-3.28a9,9,0,0,1-.07-1.09,9.46,9.46,0,0,1,18.92-.38l.12,3.21,3.2-.37,18.4-2.12,1.21-.14.77-1c.79-1,1.87-2.32,2.4-17.9.25-7.25.26-14.3.26-14.37v-.13l0-.13c-.72-8-2.73-27-5.9-31.32-1.11-1.66-2.2-2.49-38.66-2.49Z"/><path class="cls-2" d="M154.49,116.19a10.19,10.19,0,1,1-10.19,10.19,10.19,10.19,0,0,1,10.19-10.19m0-2.26a12.45,12.45,0,1,0,12.45,12.45,12.46,12.46,0,0,0-12.45-12.45Z"/><path class="cls-2" d="M91.41,69.39h1.7V84.65l-29.4.82C66.77,79.6,73.65,70.72,76,70.13c1.87-.47,7.49-.74,15.4-.74m0-2.26c-5,0-13.17.11-16,.81C71.21,69,61.71,82.86,60.26,87.84l35.11-1V67.16s-1.62,0-4,0Z"/><circle class="cls-2" cx="57.3" cy="126.85" r="6.39"/><circle class="cls-2" cx="154.53" cy="126.57" r="6.39"/><polygon class="cls-4" points="323.75 201.14 218.94 201.14 218.94 77.07 238.88 57.13 323.75 57.13 323.75 201.14"/><polygon class="cls-5" points="238.88 77.07 218.94 77.07 238.88 57.13 238.88 77.07"/><line class="cls-5" x1="232.58" y1="91.47" x2="310.39" y2="91.47"/><line class="cls-5" x1="232.58" y1="101.27" x2="310.39" y2="101.27"/><line class="cls-5" x1="232.58" y1="111.07" x2="310.39" y2="111.07"/><line class="cls-5" x1="232.44" y1="120.87" x2="310.25" y2="120.87"/><line class="cls-5" x1="232.44" y1="130.67" x2="310.25" y2="130.67"/><line class="cls-5" x1="232.58" y1="140.47" x2="310.39" y2="140.47"/><line class="cls-5" x1="232.58" y1="150.27" x2="310.39" y2="150.27"/><line class="cls-5" x1="232.58" y1="160.07" x2="310.39" y2="160.07"/><line class="cls-5" x1="232.58" y1="169.87" x2="310.39" y2="169.87"/><line class="cls-5" x1="232.58" y1="179.67" x2="310.39" y2="179.67"/><polyline class="cls-4" points="328.75 62.13 328.75 206.14 223.94 206.14"/><polyline class="cls-4" points="333.75 67.13 333.75 211.14 228.94 211.14"/><polyline class="cls-4" points="338.75 72.13 338.75 216.14 233.94 216.14"/></svg>