<svg id="Ebene_1" data-name="Ebene 1" xmlns="http://www.w3.org/2000/svg" viewBox="0 0 376.95 254.65"><defs><style>.cls-1,.cls-2{fill:#1f1e80;}.cls-1{stroke:#1f1e80;stroke-miterlimit:10;stroke-width:2.26px;}</style></defs><polygon class="cls-1" points="299.41 74.77 293.81 74.63 302.73 59.17 306.36 62.74 299.41 74.77"/><path class="cls-2" d="M298.53,36l44.35,40.87-8.7,9.43-7.45-6.87V73.7l-2.29,0-3.88,0L289.83,45.45l8.7-9.43m-.13-3.2L286.63,45.58,319.68,76l4.79-.05v4.46l9.84,9.07,11.77-12.76L298.4,32.82Z"/><path class="cls-2" d="M49.59,198.51A10.19,10.19,0,1,1,39.4,208.7a10.19,10.19,0,0,1,10.19-10.19m0-2.26A12.45,12.45,0,1,0,62,208.7a12.46,12.46,0,0,0-12.45-12.45Z"/><path class="cls-2" d="M139.88,198.3a10.19,10.19,0,1,1-10.19,10.19,10.19,10.19,0,0,1,10.19-10.19m0-2.26a12.45,12.45,0,1,0,12.45,12.45A12.46,12.46,0,0,0,139.88,196Z"/><path class="cls-2" d="M163.57,151.59v36.1H103.25v-36.1h60.32m2.26-2.27H101V190h64.84V149.32Z"/><path class="cls-2" d="M85.05,162.91h1.3v13.42l-26,.7c2.86-5.78,9-13,11-13.49,1.58-.4,6.7-.63,13.7-.63m0-2.27c-4.47,0-11.84.1-14.25.7-3.69.92-12.06,12-13.8,18l31.62-.85V160.66s-1.47,0-3.57,0Z"/><path class="cls-2" d="M213.65,199a10.19,10.19,0,1,1-10.19,10.19A10.19,10.19,0,0,1,213.65,199m0-2.26A12.45,12.45,0,1,0,226.1,209.2a12.46,12.46,0,0,0-12.45-12.45Z"/><path class="cls-2" d="M310.73,198.8A10.19,10.19,0,1,1,300.54,209a10.19,10.19,0,0,1,10.19-10.19m0-2.26A12.45,12.45,0,1,0,323.18,209a12.46,12.46,0,0,0-12.45-12.45Z"/><path class="cls-2" d="M214.93,89.79A10.19,10.19,0,1,1,204.75,100a10.19,10.19,0,0,1,10.18-10.18m0-2.27A12.46,12.46,0,1,0,227.38,100a12.47,12.47,0,0,0-12.45-12.45Z"/><path class="cls-2" d="M305.22,89.57A10.19,10.19,0,1,1,295,99.76a10.19,10.19,0,0,1,10.19-10.19m0-2.26a12.45,12.45,0,1,0,12.45,12.45,12.47,12.47,0,0,0-12.45-12.45Z"/><path class="cls-2" d="M250.39,54.18h1.31V67.6l-26,.7c2.86-5.78,9-13,11-13.49,1.58-.39,6.7-.63,13.7-.63m0-2.26c-4.47,0-11.84.09-14.25.7-3.69.92-12.06,12-13.8,18L254,69.81V51.94s-1.46,0-3.57,0Z"/><path class="cls-2" d="M50.45,89.79A10.19,10.19,0,1,1,40.26,100,10.19,10.19,0,0,1,50.45,89.79m0-2.27A12.46,12.46,0,1,0,62.9,100,12.46,12.46,0,0,0,50.45,87.52Z"/><path class="cls-2" d="M140.74,89.57a10.19,10.19,0,1,1-10.19,10.19,10.19,10.19,0,0,1,10.19-10.19m0-2.26a12.45,12.45,0,1,0,12.45,12.45,12.46,12.46,0,0,0-12.45-12.45Z"/><path class="cls-2" d="M140.74,89.57a10.19,10.19,0,1,1-10.19,10.19,10.19,10.19,0,0,1,10.19-10.19m0-2.26a12.45,12.45,0,1,0,12.45,12.45,12.46,12.46,0,0,0-12.45-12.45Z"/><path class="cls-2" d="M87.21,53.9V67.6l-26,.7c2.86-5.78,9-13,11-13.49s9.43-.81,15-.91m2.26-2.29s-14.27.12-17.81,1-12.07,12-13.81,18l31.62-.85V51.61Z"/><path class="cls-2" d="M162,70.78v9.06H104.11V70.78H162m2.27-2.26H101.85V82.1h62.37V68.52Z"/><path class="cls-2" d="M247.65,152h1.7v15.26l-29.39.81c3-5.87,9.94-14.75,12.29-15.34,1.88-.47,7.49-.73,15.4-.73m0-2.27c-5,0-13.17.11-16,.81-4.24,1.06-13.74,14.92-15.2,19.9l35.12-1v-19.7s-1.63,0-4,0Z"/><circle class="cls-2" cx="140.74" cy="99.97" r="6.39"/><circle class="cls-2" cx="50.45" cy="99.97" r="6.39"/><circle class="cls-2" cx="305.25" cy="99.97" r="6.39"/><circle class="cls-2" cx="214.96" cy="99.97" r="6.39"/><circle class="cls-2" cx="49.46" cy="208.49" r="6.39"/><circle class="cls-2" cx="139.83" cy="208.3" r="6.39"/><circle class="cls-2" cx="213.54" cy="209.46" r="6.39"/><circle class="cls-2" cx="310.77" cy="209.18" r="6.39"/><path class="cls-2" d="M266.36,48.5V76.68C296,76.25,324.47,76,324.47,76s0,20.38-2,22.85l-4.8.77a12.45,12.45,0,0,0-24.9.15,12.1,12.1,0,0,0,.13,1.72l-65.76.93a12.24,12.24,0,0,0,.24-2.44,12.45,12.45,0,0,0-24.81-1.43l-6.13-2c.36-13.62,2.9-19.33,9.81-21.13,1-.26,10.89-4.56,11.28-4.57,1.94-3.74,11.2-20.6,17.05-21.23,6.65-.71,31.78-1.15,31.78-1.15m2.26-2.3-2.3,0c-1,0-25.31.45-32,1.16S219,63.23,215.93,69c-.81.32-2.15.88-4.53,1.88-2.2.92-5.21,2.18-5.75,2.35-9.1,2.37-11.14,10.65-11.47,23.25l0,1.7,1.61.52,6.13,2,2.62.84.32-2.74a10.18,10.18,0,0,1,20.3,1.17,10.43,10.43,0,0,1-.2,2l-.55,2.74,2.8,0,65.76-.94,2.57,0-.35-2.54a9.68,9.68,0,0,1-.12-1.41,10.19,10.19,0,0,1,20.37-.12l0,2.61,2.59-.41,4.81-.76.86-.14.54-.68c.6-.74,1.71-2.12,2.25-13.67.25-5.39.25-10.55.25-10.6V73.71l-2.29,0c-.27,0-27.35.25-55.82.66V46.2Z"/><path class="cls-2" d="M101,157.23V190h58.06c-.14,6.21-.58,15.95-1.92,17.61l-4.81.76a12.45,12.45,0,0,0-24.89.16,12.08,12.08,0,0,0,.13,1.71l-65.76.94A12.31,12.31,0,0,0,62,208.7a12.45,12.45,0,0,0-24.81-1.43l-6.13-2c.36-13.62,2.89-19.32,9.81-21.13,1-.26,10.89-4.55,11.27-4.56,1.94-3.74,11.21-20.6,17.06-21.23,6.58-.71,31.22-1.15,31.75-1.15m2.26-2.31-2.3,0c-.24,0-25.23.45-31.95,1.17S53.67,172,50.59,177.77c-.81.32-2.16.88-4.53,1.87-2.2.93-5.21,2.19-5.75,2.35-9.1,2.37-11.14,10.66-11.47,23.26l-.05,1.69,1.62.52,6.13,2,2.62.84.32-2.73a10.18,10.18,0,0,1,20.3,1.17,10.33,10.33,0,0,1-.2,2L59,213.44l2.8,0,65.76-.93,2.57,0-.36-2.54a11,11,0,0,1-.11-1.4,10.19,10.19,0,0,1,20.37-.13l0,2.62,2.59-.41,4.8-.77.86-.13.55-.68c.66-.82,2-2.54,2.43-19l.05-2.32H103.25V154.92Z"/><path class="cls-2" d="M302,144.88c19.6,0,35.64.35,36.24,1.24,3,3.77,5.36,29.85,5.36,29.85s0,27.93-2,30.4l-18.4,2.13a12.44,12.44,0,0,0-24.88.49,11.32,11.32,0,0,0,.09,1.43l-43.59.48-28.9.59a12.45,12.45,0,1,0-24.68-2.29c0,.32,0,.64.05,1l-12.13-3.3s-.75-20.61,2.27-23.12c6.47-5.37,19.63-13.47,19.81-13.48,2.6-4.95,12.8-22.27,18.25-23.63,3.66-.92,42.31-1.74,72.51-1.74m0-2.26c-26.21,0-68.72.72-73.06,1.8-6.81,1.7-17.41,20.57-19.38,24.18-1.12.63-3.15,1.9-7.11,4.48-3.76,2.47-9,6-12.47,8.91-1.32,1.1-2.71,3.63-3.08,14.16-.19,5.49,0,10.57,0,10.78l.06,1.67,1.61.44,12.12,3.3,3.1.84-.25-3.2c0-.28,0-.54,0-.78a10.19,10.19,0,1,1,20.2,1.87l-.51,2.74,2.78-.06,28.9-.59,43.56-.48,2.51,0-.28-2.49a10.09,10.09,0,0,1,10.11-11.36,10.15,10.15,0,0,1,10.17,9.78L321,211l2.43-.28,18.4-2.12.93-.11.58-.72c.64-.8,1.72-2.13,2.24-17.47.25-7.24.25-14.28.25-14.35v-.2c-.56-6.23-2.62-26.75-5.77-31-.71-1.06-1.26-1.55-12.77-1.9-6.16-.18-14.92-.28-25.31-.28Z"/><path class="cls-2" d="M101.87,48.5v20h0V82.1h58c-.17,6.22-.63,15.16-1.9,16.74l-4.81.77a12.45,12.45,0,0,0-24.9.15,12.09,12.09,0,0,0,.14,1.72l-65.76.93A13,13,0,0,0,62.9,100a12.45,12.45,0,0,0-24.81-1.43l-6.13-2c.35-13.62,2.89-19.33,9.81-21.13,1-.26,10.89-4.56,11.27-4.57C55,67.14,64.25,50.28,70.1,49.65c6.64-.71,31.77-1.15,31.77-1.15m2.27-2.3-2.31,0c-1,0-25.31.45-32,1.16S54.52,63.23,51.45,69c-.81.32-2.16.88-4.53,1.88-2.2.92-5.22,2.18-5.75,2.35C32.06,75.64,30,83.92,29.7,96.52l-.05,1.7,1.62.52,6.13,2,2.62.84.31-2.74A10.19,10.19,0,0,1,60.64,100a10.43,10.43,0,0,1-.2,2l-.55,2.74,2.8,0,65.76-.94,2.56,0-.35-2.54a9.54,9.54,0,0,1-.11-1.41,10.19,10.19,0,0,1,20.37-.12l0,2.61,2.59-.41,4.8-.76.86-.14.55-.68c.64-.8,2-2.46,2.4-18.1l.06-2.32h-58.1V70.78l0-2.26V46.2Z"/></svg>